<?xml version="1.0" standalone="no"?>
<!DOCTYPE svg PUBLIC "-//W3C//DTD SVG 20010904//EN"
 "http://www.w3.org/TR/2001/REC-SVG-20010904/DTD/svg10.dtd">
<svg version="1.0" xmlns="http://www.w3.org/2000/svg"
 width="620.000000pt" height="620.000000pt" viewBox="0 0 620.000000 620.000000"
 preserveAspectRatio="xMidYMid meet">
<metadata>
Created by potrace 1.14, written by Peter Selinger 2001-2017
</metadata>
<g transform="translate(0.000000,620.000000) scale(0.100000,-0.100000)"
fill="#000000" stroke="none">
<path d="M2345 6180 c-844 -128 -1509 -711 -1746 -1531 -36 -127 -83 -354
-104 -509 -50 -375 -48 -310 -52 -2288 l-4 -1852 455 0 454 0 5 1728 c3 1114
9 1784 16 1887 16 232 39 436 62 550 43 214 146 467 261 640 62 95 219 255
303 310 246 162 552 235 924 222 224 -8 377 -40 584 -123 463 -186 853 -563
1080 -1043 102 -216 151 -410 181 -716 36 -359 39 -500 43 -1977 l5 -1478 464
0 464 0 0 3025 0 3025 -465 0 -465 0 0 -445 0 -444 -192 193 c-205 205 -294
281 -478 405 -346 235 -713 374 -1118 425 -174 22 -518 20 -677 -4z"/>
</g>
</svg>
